<svg width="900" height="650" viewBox="0 0 900 650" fill="none" xmlns="http://www.w3.org/2000/svg">
  <defs>
    <linearGradient id="leather" x1="148" y1="124" x2="724" y2="520" gradientUnits="userSpaceOnUse">
      <stop stop-color="#7A4525"/>
      <stop offset=".46" stop-color="#4A2919"/>
      <stop offset="1" stop-color="#1D1713"/>
    </linearGradient>
    <filter id="grain" x="0" y="0" width="100%" height="100%">
      <feTurbulence type="fractalNoise" baseFrequency=".9" numOctaves="4" seed="8"/>
      <feColorMatrix type="saturate" values="0"/>
      <feBlend mode="multiply" in2="SourceGraphic"/>
    </filter>
  </defs>
  <rect width="900" height="650" fill="#F1E7DA"/>
  <ellipse cx="492" cy="548" rx="290" ry="45" fill="#2A1810" opacity=".18"/>
  <path d="M193 181c0-32 26-58 58-58h327c62 0 112 50 112 112v214c0 38-31 69-69 69H251c-32 0-58-26-58-58V181Z" fill="url(#leather)"/>
  <path d="M247 148h331c49 0 88 39 88 88v207c0 28-23 51-51 51H247c-18 0-32-14-32-32V180c0-18 14-32 32-32Z" filter="url(#grain)" opacity=".27"/>
  <path d="M226 175h365c41 0 75 34 75 75v181c0 27-22 49-49 49H226V175Z" stroke="#C78A54" stroke-width="5"/>
  <path d="M251 205h334c27 0 49 22 49 49v161c0 17-14 31-31 31H251" stroke="#1A100B" stroke-width="8" opacity=".55"/>
  <path d="M268 232h278" stroke="#A66A3F" stroke-width="4" stroke-dasharray="11 15" opacity=".85"/>
  <path d="M269 419h310" stroke="#A66A3F" stroke-width="4" stroke-dasharray="11 15" opacity=".85"/>
  <text x="486" y="351" text-anchor="middle" font-family="Georgia, serif" font-size="88" fill="#D9A45F" letter-spacing="10">AR</text>
</svg>
